<svg version="1.1" viewBox="0.0 0.0 293.4671916010499 162.56167979002623" fill="none" stroke="none" stroke-linecap="square" stroke-miterlimit="10" xmlns:xlink="http://www.w3.org/1999/xlink" xmlns="http://www.w3.org/2000/svg">
    <clipPath id="p.0">
        <path d="m0 0l293.4672 0l0 162.56168l-293.4672 0l0 -162.56168z" clip-rule="nonzero" />
    </clipPath>
    <g clip-path="url(#p.0)">
        <path fill="#000000" fill-opacity="0.0" d="m0 0l293.4672 0l0 162.56168l-293.4672 0z" fill-rule="evenodd" />
        <path fill="#cfe2f3" d="m55.307087 58.157677l0 0c0 -5.4620743 4.427887 -9.889961 9.889965 -9.889961l47.59015 0c2.6229858 0 5.1385345 1.0419769 6.9932632 2.8967056c1.8547287 1.8547249 2.896698 4.3702774 2.896698 6.9932556l0 39.558662c0 5.4620743 -4.427887 9.889961 -9.889961 9.889961l-47.59015 0c-5.462078 0 -9.889965 -4.427887 -9.889965 -9.889961z" fill-rule="evenodd" />
        <path stroke="#000000" stroke-width="1.0" stroke-linejoin="round" stroke-linecap="butt" d="m55.307087 58.157677l0 0c0 -5.4620743 4.427887 -9.889961 9.889965 -9.889961l47.59015 0c2.6229858 0 5.1385345 1.0419769 6.9932632 2.8967056c1.8547287 1.8547249 2.896698 4.3702774 2.896698 6.9932556l0 39.558662c0 5.4620743 -4.427887 9.889961 -9.889961 9.889961l-47.59015 0c-5.462078 0 -9.889965 -4.427887 -9.889965 -9.889961z" fill-rule="evenodd" />
        <path fill="#000000" d="m68.64126 84.85701l0 -13.359375l5.046875 0q1.328125 0 2.03125 0.125q0.96875 0.171875 1.640625 0.640625q0.671875 0.453125 1.078125 1.28125q0.40625 0.828125 0.40625 1.828125q0 1.703125 -1.09375 2.890625q-1.078125 1.171875 -3.921875 1.171875l-3.421875 0l0 5.421875l-1.765625 0zm1.765625 -7.0l3.453125 0q1.71875 0 2.4375 -0.640625q0.71875 -0.640625 0.71875 -1.796875q0 -0.84375 -0.421875 -1.4375q-0.421875 -0.59375 -1.125 -0.78125q-0.4375 -0.125 -1.640625 -0.125l-3.421875 0l0 4.78125zm16.193573 7.0l-1.640625 0l0 -10.453125q-0.59375 0.5625 -1.5625 1.140625q-0.953125 0.5625 -1.71875 0.84375l0 -1.59375q1.375 -0.640625 2.40625 -1.5625q1.03125 -0.921875 1.453125 -1.78125l1.0625 0l0 13.40625z" fill-rule="nonzero" />
        <path fill="#cfe2f3" d="m162.90552 60.16818l0 0c0 -5.462078 4.427887 -9.889965 9.889954 -9.889965l47.590164 0c2.6229706 0 5.1385193 1.0419769 6.9932556 2.8967056c1.8547211 1.8547249 2.896698 4.3702774 2.896698 6.9932594l0 39.55866c0 5.4620743 -4.427887 9.889961 -9.889954 9.889961l-47.590164 0c-5.4620667 0 -9.889954 -4.427887 -9.889954 -9.889961z" fill-rule="evenodd" />
        <path stroke="#000000" stroke-width="1.0" stroke-linejoin="round" stroke-linecap="butt" d="m162.90552 60.16818l0 0c0 -5.462078 4.427887 -9.889965 9.889954 -9.889965l47.590164 0c2.6229706 0 5.1385193 1.0419769 6.9932556 2.8967056c1.8547211 1.8547249 2.896698 4.3702774 2.896698 6.9932594l0 39.55866c0 5.4620743 -4.427887 9.889961 -9.889954 9.889961l-47.590164 0c-5.4620667 0 -9.889954 -4.427887 -9.889954 -9.889961z" fill-rule="evenodd" />
        <path fill="#000000" d="m176.23969 86.86751l0 -13.359375l5.046875 0q1.328125 0 2.03125 0.125q0.96875 0.171875 1.640625 0.640625q0.671875 0.453125 1.078125 1.28125q0.40625 0.828125 0.40625 1.828125q0 1.703125 -1.09375 2.890625q-1.078125 1.171875 -3.921875 1.171875l-3.421875 0l0 5.421875l-1.765625 0zm1.765625 -7.0l3.453125 0q1.71875 0 2.4375 -0.640625q0.71875 -0.640625 0.71875 -1.796875q0 -0.84375 -0.421875 -1.4375q-0.421875 -0.59375 -1.125 -0.78125q-0.4375 -0.125 -1.640625 -0.125l-3.421875 0l0 4.78125zm18.631073 5.421875l0 1.578125l-8.828125 0q-0.015625 -0.59375 0.1875 -1.140625q0.34375 -0.90625 1.078125 -1.78125q0.75 -0.875 2.15625 -2.015625q2.171875 -1.78125 2.9375 -2.828125q0.765625 -1.046875 0.765625 -1.96875q0 -0.984375 -0.703125 -1.640625q-0.6875 -0.671875 -1.8125 -0.671875q-1.1875 0 -1.90625 0.71875q-0.703125 0.703125 -0.703125 1.953125l-1.6875 -0.171875q0.171875 -1.890625 1.296875 -2.875q1.140625 -0.984375 3.03125 -0.984375q1.921875 0 3.046875 1.0625q1.125 1.0625 1.125 2.640625q0 0.796875 -0.328125 1.578125q-0.328125 0.78125 -1.09375 1.640625q-0.75 0.84375 -2.53125 2.34375q-1.46875 1.234375 -1.890625 1.6875q-0.421875 0.4375 -0.6875 0.875l6.546875 0z" fill-rule="nonzero" />
        <path fill="#000000" fill-opacity="0.0" d="m122.685036 75.41207c10.055122 0 15.08268 1.1338577 20.110237 2.2677155c5.0275574 1.1338654 10.055115 2.267723 20.110245 2.267723" fill-rule="evenodd" />
        <path stroke="#000000" stroke-width="1.0" stroke-linejoin="round" stroke-linecap="butt" d="m122.685036 75.41207c10.055122 0 15.08268 1.1338577 20.110237 2.2677155c5.0275574 1.1338654 10.055115 2.267723 20.110245 2.267723" fill-rule="evenodd" />
    </g>
</svg>